<?xml version="1.0" encoding="UTF-8" standalone="no"?>
<!DOCTYPE svg PUBLIC "-//W3C//DTD SVG 1.1//EN" "http://www.w3.org/Graphics/SVG/1.1/DTD/svg11.dtd">
<svg width="100%" height="100%" viewBox="0 0 713 1098" version="1.1" xmlns="http://www.w3.org/2000/svg" xmlns:xlink="http://www.w3.org/1999/xlink" xml:space="preserve" xmlns:serif="http://www.serif.com/" style="fill-rule:evenodd;clip-rule:evenodd;stroke-linejoin:round;stroke-miterlimit:2;">
    <g id="Artboard1" transform="matrix(0.463613,0,0,0.714376,0,0)">
        <rect x="0" y="0" width="1536" height="1536" style="fill:none;"/>
        <g transform="matrix(2.15697,0,0,1.39982,-884.965,-302.602)">
            <path d="M778.5,252.5C777.179,261.009 777.179,269.675 778.5,278.5C779.107,278.376 779.44,278.043 779.5,277.5C782.489,271.011 787.489,268.844 794.5,271C798.327,274.308 799.494,278.474 798,283.5C795.761,290.219 793.927,297.052 792.5,304C792.243,309.255 794.577,311.588 799.5,311C805.479,305.506 812.479,303.172 820.5,304C825.765,307.215 826.931,311.715 824,317.5C821.933,320.07 819.433,322.07 816.5,323.5C820.088,325.909 824.088,326.909 828.5,326.5C836.508,325.475 844.508,324.308 852.5,323C856.5,322.333 860.5,322.333 864.5,323C868.074,326.524 868.407,330.358 865.5,334.5C871.518,334.119 877.518,334.619 883.5,336C887.41,340.594 887.41,345.261 883.5,350C881.35,351.411 879.016,352.245 876.5,352.5C872.445,352.176 868.445,352.509 864.5,353.5C864.624,354.107 864.957,354.44 865.5,354.5C869.965,356.307 872.632,359.641 873.5,364.5C872.869,369.124 870.203,371.124 865.5,370.5C861.673,370.392 858.007,369.558 854.5,368C842.709,363.517 831.042,358.85 819.5,354C816.824,353.26 814.158,352.927 811.5,353C817.903,356.947 823.07,362.114 827,368.5C827.987,382.755 822.154,386.589 809.5,380C804.833,375 800.167,370 795.5,365C794.833,364.333 794.167,364.333 793.5,365C792.273,373.794 792.44,382.627 794,391.5C797.559,402.725 805.226,408.058 817,407.5C828.612,406.057 840.112,403.89 851.5,401C855.956,400.133 860.289,400.466 864.5,402C867.769,405.453 868.269,409.286 866,413.5C863.374,416.231 860.207,418.064 856.5,419C848.543,420.543 840.876,422.876 833.5,426C835.5,426.667 837.5,427.333 839.5,428C871.528,429.394 902.194,423.727 931.5,411C935.5,410.333 939.5,410.333 943.5,411C946.192,412.88 947.359,415.38 947,418.5C945.92,420.996 944.586,423.33 943,425.5C940.5,427.333 938,429.167 935.5,431C950.879,431.529 966.212,431.195 981.5,430C989.036,434.496 990.37,440.329 985.5,447.5C983.615,448.609 981.615,449.443 979.5,450C968.067,450.628 956.734,451.961 945.5,454C945.043,454.414 944.709,454.914 944.5,455.5C949.931,458.086 953.264,462.253 954.5,468C953.772,473.38 950.606,475.88 945,475.5C942.453,475.238 939.953,474.738 937.5,474C925.713,468.773 913.713,464.106 901.5,460C893.221,458.503 884.888,458.169 876.5,459C886.469,463.984 896.469,468.984 906.5,474C911.534,477.231 913.368,481.731 912,487.5C907.561,491.342 902.395,492.509 896.5,491C875.872,482.682 855.539,473.849 835.5,464.5C840.168,471.011 846.001,477.011 853,482.5C856.458,493.716 852.291,498.549 840.5,497C830.706,490.203 821.206,483.037 812,475.5C805.5,480.188 803.166,486.521 805,494.5C806.961,501.779 811.128,507.279 817.5,511C823.235,513.601 829.235,515.267 835.5,516C859.224,517.723 882.557,515.39 905.5,509C916.543,506.4 921.71,510.567 921,521.5C920.167,522.333 919.333,523.167 918.5,524C906.896,527.815 895.229,531.149 883.5,534C915.497,535.38 945.83,529.046 974.5,515C984.472,514.107 988.639,518.607 987,528.5C980.884,533.81 974.051,537.976 966.5,541C965.262,541.69 965.262,542.19 966.5,542.5C966.389,543.117 966.056,543.617 965.5,544C977.182,543.869 988.849,544.035 1000.5,544.5C1009.55,544.035 1018.55,543.202 1027.5,542C1020.84,541.5 1014.17,541.334 1007.5,541.5C1018.32,540.186 1029.32,539.686 1040.5,540C1048.94,543.047 1051.11,548.547 1047,556.5C1045.42,558.041 1043.59,559.208 1041.5,560C1028.17,561.333 1014.84,562.666 1001.5,564C1008.65,566.91 1015.99,569.243 1023.5,571C1030.64,575.97 1031.31,581.637 1025.5,588C1020.95,589.545 1016.29,589.879 1011.5,589C980.87,579.38 949.87,571.88 918.5,566.5C927.063,570.364 934.896,575.364 942,581.5C942.625,590.542 938.458,594.375 929.5,593C926.258,591.361 922.924,590.361 919.5,590C925.272,592.634 930.439,596.134 935,600.5C935.296,608.538 931.462,612.038 923.5,611C921.913,610.138 920.246,609.471 918.5,609C888.886,593.046 859.052,577.546 829,562.5C828.5,562.667 828,562.833 827.5,563C836.757,571.594 846.59,579.427 857,586.5C860.573,592.05 859.74,596.884 854.5,601C851.634,602.457 848.634,602.79 845.5,602C833.833,593.833 822.167,585.667 810.5,577.5C809.817,577.863 809.15,578.196 808.5,578.5C808.279,575.903 807.779,575.903 807,578.5C803.232,592.265 806.565,603.932 817,613.5C817.483,614.448 817.649,615.448 817.5,616.5C826.885,619.632 836.885,622.132 847.5,624C865.516,624.326 883.516,623.826 901.5,622.5C904.551,622.598 907.551,622.931 910.5,623.5C912.557,625.857 912.89,628.524 911.5,631.5C910.575,632.641 909.741,632.641 909,631.5C908.692,632.308 908.192,632.975 907.5,633.5C897.946,634.142 888.113,634.142 878,633.5C874.788,635.346 871.288,636.346 867.5,636.5C860.902,633.616 854.569,634.116 848.5,638C847.773,639.399 847.273,640.899 847,642.5C845.152,639.959 842.652,638.959 839.5,639.5L839.5,636.5L831.5,636.5C831.785,634.712 831.452,633.045 830.5,631.5C829.52,634.086 829.187,636.753 829.5,639.5L823.5,639.5L823.5,631.5C822.448,631.649 821.448,631.483 820.5,631C819.667,628.833 818.167,627.333 816,626.5C815.824,629.882 815.324,633.215 814.5,636.5C812.502,638.334 810.168,639.334 807.5,639.5L807.5,647.5C802.821,647.666 798.155,647.499 793.5,647C794.781,644.597 796.614,642.763 799,641.5C799.667,640.167 799.667,638.833 799,637.5C797.874,638.944 796.374,639.61 794.5,639.5C787.331,636.633 784.331,631.3 785.5,623.5L777.5,623.5L777.5,615.5C775.801,615.66 774.134,615.494 772.5,615C771.667,612.833 770.167,611.333 768,610.5C767.517,609.552 767.351,608.552 767.5,607.5L775.5,607.5L775.5,602.5L767.5,602.5L767.5,599.5L759.5,599.5C759.351,598.448 759.517,597.448 760,596.5C765.491,593.071 765.325,591.404 759.5,591.5L759.5,575.5L767.5,575.5C767.522,571.407 768.189,567.407 769.5,563.5C768.574,560.53 767.908,557.53 767.5,554.5L759.5,554.5L759.5,551.5C762.247,551.813 764.914,551.48 767.5,550.5C765.005,548.836 763.005,546.67 761.5,544C763.473,543.505 765.473,543.338 767.5,543.5L767.5,537.5C770.247,537.813 772.914,537.48 775.5,536.5C771.217,535.508 766.884,535.174 762.5,535.5L762.5,527.5L759.5,527.5L759.5,533.5L751.5,533.5L751.5,537.5C748.753,537.813 746.086,537.48 743.5,536.5C746.175,533.791 748.842,531.124 751.5,528.5C748.216,527.343 744.882,527.176 741.5,528C740.219,530.403 738.386,532.237 736,533.5C733.579,532.039 731.079,530.706 728.5,529.5C727.534,531.396 727.201,533.396 727.5,535.5L719.5,535.5L719.5,529.5C714.167,528.833 708.833,528.167 703.5,527.5C703.66,529.199 703.494,530.866 703,532.5C700.535,531.08 698.035,530.747 695.5,531.5C697.952,533.393 700.619,534.726 703.5,535.5L703.5,538.5C700.626,537.937 697.96,536.937 695.5,535.5C695.649,536.552 695.483,537.552 695,538.5C692.833,539.333 691.333,540.833 690.5,543C687.518,543.498 684.518,543.665 681.5,543.5C680.833,532.833 680.167,532.833 679.5,543.5L671.5,543.5L671.5,549.5L663.5,549.5L663.5,543.5C658.07,543.839 652.736,543.339 647.5,542C648.833,541 648.833,540 647.5,539C649.167,538.667 650.833,538.333 652.5,538C651.244,537.583 650.577,536.75 650.5,535.5C650.53,534.503 650.03,533.836 649,533.5C646.5,532.667 644,531.833 641.5,531C633.702,529.533 626.035,527.533 618.5,525C614.871,522.004 613.704,518.171 615,513.5C617.038,510.134 620.038,508.467 624,508.5C636.01,511.478 648.177,513.478 660.5,514.5C662.086,515.148 663.753,515.648 665.5,516C676.495,516.5 687.495,516.667 698.5,516.5C712.998,516.008 723.498,509.341 730,496.5C731.603,488.387 729.269,481.721 723,476.5C714.068,482.389 705.568,488.889 697.5,496C688.902,500.248 683.236,497.748 680.5,488.5C680.902,486.7 681.569,485.033 682.5,483.5C684.243,480.25 686.577,477.416 689.5,475C693.689,471.31 698.022,467.81 702.5,464.5C702.167,464.167 701.833,463.833 701.5,463.5C691.052,467.89 680.719,472.557 670.5,477.5C660.815,481.898 651.149,486.398 641.5,491C636.5,491.667 631.5,491.667 626.5,491C620.945,485.407 621.278,480.073 627.5,475C638.515,469.828 649.182,464.161 659.5,458C651.551,458.235 643.551,458.569 635.5,459C621.325,465.058 606.992,470.725 592.5,476C583.393,476.879 579.893,472.712 582,463.5C584.755,458.911 588.588,455.578 593.5,453.5C579.47,452.178 565.47,450.678 551.5,449C544.12,441.325 545.12,434.992 554.5,430C569.197,430.259 583.864,430.926 598.5,432C594.185,428.687 591.018,424.521 589,419.5C588.5,411.344 592.333,408.178 600.5,410C618.246,417.679 636.58,423.346 655.5,427C667.465,428.475 679.465,428.808 691.5,428C694.559,427.355 697.559,426.522 700.5,425.5C692.887,423.288 685.22,421.121 677.5,419C667.84,414.913 666.174,408.913 672.5,401C676.5,400.333 680.5,400.333 684.5,401C697.627,404.854 710.96,407.187 724.5,408C733.335,404.842 738.835,398.675 741,389.5C743.112,380.893 742.946,372.393 740.5,364C735.809,369.173 730.809,374.506 725.5,380C716.008,385.949 709.675,383.616 706.5,373C706.909,370.679 707.743,368.513 709,366.5C713.666,362.331 717.832,357.665 721.5,352.5C721.167,352.167 720.833,351.833 720.5,351.5C703.553,359.149 686.22,365.816 668.5,371.5C661.205,368.759 659.705,364.092 664,357.5C665.42,355.578 667.253,354.245 669.5,353.5C665.257,353.347 660.924,353.18 656.5,353C646.373,349.363 645.04,343.696 652.5,336C658.5,335.667 664.5,335.333 670.5,335C666.418,330.449 666.751,326.116 671.5,322C673.473,321.505 675.473,321.338 677.5,321.5C690.5,326.563 703.833,327.563 717.5,324.5C716.807,323.482 716.141,322.482 715.5,321.5C711.124,317.402 709.624,312.402 711,306.5C713.995,303.735 717.495,302.902 721.5,304C727.56,305.864 733.226,308.53 738.5,312C739.784,312.684 740.951,312.517 742,311.5C741.636,302.343 739.97,293.343 737,284.5C734.412,272.419 738.912,267.919 750.5,271C752.35,273.018 754.35,274.851 756.5,276.5C757.054,263.111 757.888,249.778 759,236.5C765.292,230.952 771.292,231.285 777,237.5C778.25,242.42 778.75,247.42 778.5,252.5Z" style="fill:rgb(26,31,28);"/>
        </g>
        <g transform="matrix(2.15697,0,0,1.39982,-884.965,-302.602)">
            <path d="M554.5,533.5C554.735,532.903 555.235,532.57 556,532.5C561.328,533.799 566.495,535.465 571.5,537.5C572.5,534.833 573.5,534.833 574.5,537.5C573.907,539.382 573.24,541.215 572.5,543C566.888,544.026 561.221,544.526 555.5,544.5C534.828,543.648 514.162,543.148 493.5,543C492.234,543.309 491.067,543.809 490,544.5C489.305,546.722 488.472,548.889 487.5,551C488.701,553.234 490.035,555.401 491.5,557.5C491.376,558.107 491.043,558.44 490.5,558.5C489.206,557.71 488.039,556.71 487,555.5C484.955,548.827 486.788,543.827 492.5,540.5C518.826,541.51 545.159,541.677 571.5,541C567.081,538.561 562.415,536.727 557.5,535.5C556.71,534.599 555.71,533.932 554.5,533.5Z" style="fill:rgb(20,21,20);"/>
        </g>
        <g transform="matrix(2.15697,0,0,1.39982,-884.965,-302.602)">
            <path d="M1007.5,541.5C1014.17,541.334 1020.84,541.5 1027.5,542C1018.55,543.202 1009.55,544.035 1000.5,544.5C988.849,544.035 977.182,543.869 965.5,544C966.056,543.617 966.389,543.117 966.5,542.5C980.137,541.573 993.804,541.24 1007.5,541.5Z" style="fill:rgb(20,22,21);"/>
        </g>
        <g transform="matrix(2.15697,0,0,1.39982,-884.965,-302.602)">
            <path d="M650.5,535.5C650.577,536.75 651.244,537.583 652.5,538C650.833,538.333 649.167,538.667 647.5,539C648.833,540 648.833,541 647.5,542C652.736,543.339 658.07,543.839 663.5,543.5L663.5,549.5L671.5,549.5L671.5,543.5L679.5,543.5C680.167,532.833 680.833,532.833 681.5,543.5C684.518,543.665 687.518,543.498 690.5,543C691.333,540.833 692.833,539.333 695,538.5C695.483,537.552 695.649,536.552 695.5,535.5C697.96,536.937 700.626,537.937 703.5,538.5L703.5,535.5C700.619,534.726 697.952,533.393 695.5,531.5C698.035,530.747 700.535,531.08 703,532.5C703.494,530.866 703.66,529.199 703.5,527.5C708.833,528.167 714.167,528.833 719.5,529.5L719.5,535.5L727.5,535.5C727.201,533.396 727.534,531.396 728.5,529.5C731.079,530.706 733.579,532.039 736,533.5C738.386,532.237 740.219,530.403 741.5,528C744.882,527.176 748.216,527.343 751.5,528.5C748.842,531.124 746.175,533.791 743.5,536.5C746.086,537.48 748.753,537.813 751.5,537.5L751.5,533.5L759.5,533.5L759.5,527.5L762.5,527.5L762.5,535.5C766.884,535.174 771.217,535.508 775.5,536.5C772.914,537.48 770.247,537.813 767.5,537.5L767.5,543.5C765.473,543.338 763.473,543.505 761.5,544C763.005,546.67 765.005,548.836 767.5,550.5C764.914,551.48 762.247,551.813 759.5,551.5L759.5,554.5L767.5,554.5C767.908,557.53 768.574,560.53 769.5,563.5C768.189,567.407 767.522,571.407 767.5,575.5L759.5,575.5L759.5,591.5C765.325,591.404 765.491,593.071 760,596.5C759.517,597.448 759.351,598.448 759.5,599.5L767.5,599.5L767.5,602.5L775.5,602.5L775.5,607.5L767.5,607.5C767.351,608.552 767.517,609.552 768,610.5C770.167,611.333 771.667,612.833 772.5,615C774.134,615.494 775.801,615.66 777.5,615.5L777.5,623.5L785.5,623.5C784.331,631.3 787.331,636.633 794.5,639.5C796.374,639.61 797.874,638.944 799,637.5C799.667,638.833 799.667,640.167 799,641.5C796.614,642.763 794.781,644.597 793.5,647C798.155,647.499 802.821,647.666 807.5,647.5L807.5,639.5C810.168,639.334 812.502,638.334 814.5,636.5C815.324,633.215 815.824,629.882 816,626.5C818.167,627.333 819.667,628.833 820.5,631C821.448,631.483 822.448,631.649 823.5,631.5L823.5,639.5L829.5,639.5C829.187,636.753 829.52,634.086 830.5,631.5C831.452,633.045 831.785,634.712 831.5,636.5L839.5,636.5L839.5,639.5C842.652,638.959 845.152,639.959 847,642.5C847.273,640.899 847.773,639.399 848.5,638C854.569,634.116 860.902,633.616 867.5,636.5C871.288,636.346 874.788,635.346 878,633.5C888.113,634.142 897.946,634.142 907.5,633.5C908.192,632.975 908.692,632.308 909,631.5C909.741,632.641 910.575,632.641 911.5,631.5C912.89,628.524 912.557,625.857 910.5,623.5L910.5,621.5C913.565,622.28 915.232,624.28 915.5,627.5C915.108,630.701 913.774,633.367 911.5,635.5C909.049,636.894 906.382,637.728 903.5,638C892.464,638.839 881.464,640.005 870.5,641.5C878.737,643.447 887.07,644.947 895.5,646C913.164,646.5 930.83,646.667 948.5,646.5C968.219,644.294 987.885,641.628 1007.5,638.5C1017.9,638.958 1020.9,643.958 1016.5,653.5C1015.5,654.333 1014.5,655.167 1013.5,656C1000.83,659 988.167,662 975.5,665C980.412,665.222 985.079,666.055 989.5,667.5C987.143,667.337 984.81,667.503 982.5,668C991.571,668.939 1000.57,670.106 1009.5,671.5C1014.3,670.684 1019.14,670.017 1024,669.5C1029.18,670.585 1034.34,670.085 1039.5,668C1034.18,667.501 1028.84,667.334 1023.5,667.5C1040.57,665.492 1057.57,662.325 1074.5,658C1081.01,656.241 1086.51,657.741 1091,662.5C1091.83,666.673 1090.66,670.173 1087.5,673C1079.26,675.319 1070.93,677.319 1062.5,679C1076.73,680.37 1091.06,681.703 1105.5,683C1113.14,687.093 1114.48,692.76 1109.5,700C1108.33,700.419 1107.33,701.085 1106.5,702C1102.5,702.167 1098.5,702.333 1094.5,702.5C1064.21,699.579 1033.87,697.412 1003.5,696C1019.53,703.017 1035.53,710.017 1051.5,717C1059.55,726.268 1057.55,732.101 1045.5,734.5C1038.65,733.383 1031.98,731.55 1025.5,729C1006.02,721.788 986.692,714.288 967.5,706.5C937.273,693.771 906.94,682.105 876.5,671.5C895.283,685.834 915.617,697.667 937.5,707C940.386,708.385 942.386,710.551 943.5,713.5C943.142,723.813 937.808,727.646 927.5,725C923.373,723.401 919.706,721.067 916.5,718C915.241,717.018 913.908,716.685 912.5,717C918.167,721.333 923.833,725.667 929.5,730C934.291,733.742 936.124,738.576 935,744.5C930.879,748.815 926.045,749.649 920.5,747C904.353,733.688 888.353,720.188 872.5,706.5C871.479,707.002 871.312,707.668 872,708.5C878.093,714.59 883.427,721.256 888,728.5C889.652,739.514 885.152,743.347 874.5,740C863.5,728.333 852.5,716.667 841.5,705C837.102,701.606 832.435,698.606 827.5,696C819.773,693.276 815.773,695.943 815.5,704C816.574,710.649 819.408,716.483 824,721.5C862.079,757.812 907.246,772.812 959.5,766.5C969.23,766.621 978.897,765.954 988.5,764.5C994.026,764.218 998.359,766.218 1001.5,770.5C1003.66,777.673 1000.99,782.173 993.5,784C982.179,785.06 970.846,786.06 959.5,787C961.025,788.009 962.692,788.509 964.5,788.5C968.72,790.081 973.053,791.414 977.5,792.5C980.465,793.626 983.465,794.626 986.5,795.5C988.626,796.934 991.626,797.767 995.5,798C1007.46,799.441 1019.46,800.441 1031.5,801C1028.83,801.333 1026.17,801.667 1023.5,802C1029.53,802.252 1035.53,802.752 1041.5,803.5C1042.17,803.167 1042.83,802.833 1043.5,802.5C1042.27,801.719 1040.94,801.219 1039.5,801C1045.91,800.871 1052.25,800.204 1058.5,799C1056.19,798.503 1053.86,798.337 1051.5,798.5C1062.95,796.616 1074.61,795.616 1086.5,795.5C1091.61,799.011 1092.45,803.344 1089,808.5C1084.36,812.696 1078.86,814.529 1072.5,814C1085.6,815.898 1098.6,818.232 1111.5,821C1118.77,826.356 1119.1,832.023 1112.5,838C1105.83,838.667 1099.17,838.667 1092.5,838C1080.76,835.478 1069.1,833.144 1057.5,831C1063.74,833.031 1069.24,836.198 1074,840.5C1075.36,847.442 1072.53,851.442 1065.5,852.5C1050.42,846.795 1035.42,840.795 1020.5,834.5C1008.08,829.747 995.578,825.08 983,820.5C982.5,820.833 982,821.167 981.5,821.5C992.148,829.824 1003.15,837.658 1014.5,845C1016.79,846.777 1018.46,848.944 1019.5,851.5C1019.35,864.284 1013.68,867.45 1002.5,861C995.952,856.279 989.285,851.779 982.5,847.5C958.953,831.891 934.619,817.557 909.5,804.5C908.167,805.167 908.167,805.833 909.5,806.5C921.569,815.853 933.569,825.187 945.5,834.5C946.184,840.485 943.517,843.818 937.5,844.5C935.063,844.402 933.063,843.402 931.5,841.5C932.751,844.321 934.918,846.987 938,849.5C940.665,856.17 938.499,860.503 931.5,862.5C929.39,861.946 927.39,861.112 925.5,860C915.937,850.605 906.604,841.105 897.5,831.5C885.05,816.862 871.05,804.362 855.5,794C865.622,807.124 876.122,819.957 887,832.5C887.635,841.445 883.469,845.279 874.5,844C870.084,841.588 866.251,838.422 863,834.5C853.375,822.042 842.875,810.375 831.5,799.5C825.475,790.921 821.142,791.754 818.5,802C820.789,811.076 825.289,818.909 832,825.5C839.704,832.708 847.538,839.708 855.5,846.5C861.559,851.224 867.892,855.557 874.5,859.5C895.252,873.275 918.252,879.441 943.5,878C952.171,879.515 955.004,884.349 952,892.5C950.457,894.378 948.624,895.878 946.5,897C942.728,897.406 939.061,898.239 935.5,899.5C949.744,907.955 964.744,914.788 980.5,920C984.458,927.409 982.791,933.075 975.5,937C972.167,937.667 968.833,937.667 965.5,937C953.214,932.845 940.881,928.845 928.5,925C921.77,922.218 915.27,919.051 909,915.5C908.333,916.167 908.333,916.833 909,917.5C913,922.167 917,926.833 921,931.5C922.552,941.948 918.052,946.448 907.5,945C896.988,933.486 886.822,921.653 877,909.5C870.823,902.676 863.989,896.676 856.5,891.5C855.432,893.187 855.599,894.854 857,896.5C861.837,904.844 867.17,912.844 873,920.5C875.548,925.966 874.714,930.8 870.5,935C867.634,936.457 864.634,936.79 861.5,936C858.705,934.207 856.205,932.04 854,929.5C844.983,915.455 835.483,901.789 825.5,888.5C826.398,887.842 827.398,887.176 828.5,886.5C828.167,886.167 827.833,885.833 827.5,885.5C824.904,884.787 822.237,884.787 819.5,885.5L819.5,888.5C818.883,888.611 818.383,888.944 818,889.5C817.696,887.559 816.863,885.893 815.5,884.5C815.654,880.348 815.654,876.015 815.5,871.5L807.5,871.5L807.5,879.5C800.554,879.309 800.387,881.309 807,885.5C807.333,887.167 807.667,888.833 808,890.5C813.491,893.929 813.325,895.596 807.5,895.5L807.5,900.5C804.482,900.335 801.482,900.502 798.5,901C797.833,901.667 797.167,902.333 796.5,903C800.152,903.499 803.818,903.665 807.5,903.5L807.5,908.5L799.5,908.5L799.5,911.5C794.167,912.167 788.833,912.833 783.5,913.5L783.5,919.5L780.5,919.5L780.5,927.5L775.5,927.5L775.5,935.5L783.5,935.5L783.5,927.5L791.5,927.5C791.649,926.448 791.483,925.448 791,924.5C785.509,921.071 785.675,919.404 791.5,919.5L791.5,914.5L799.5,914.5L799.5,917.5C802.247,917.187 804.914,917.52 807.5,918.5C802.88,919.493 798.214,919.827 793.5,919.5L793.5,927.5L796.5,927.5L796.5,935.5L799.5,935.5C800.167,924.833 800.833,924.833 801.5,935.5L807.5,935.5L807.5,943.5L801.5,943.5C801.828,948.875 801.495,954.208 800.5,959.5C799.548,957.955 799.215,956.288 799.5,954.5L791.5,954.5L791.5,951.5L794.5,951.5L794.5,943.5C795.552,943.649 796.552,943.483 797.5,943C794.242,937.994 789.576,936.161 783.5,937.5L783.5,943.5L777.5,943.5L777.5,951.5L780.5,951.5L780.5,959.5L783.5,959.5C784.167,948.833 784.833,948.833 785.5,959.5C786.552,959.351 787.552,959.517 788.5,960C787.667,962.167 786.167,963.667 784,964.5C783.667,967.167 783.333,969.833 783,972.5C781,971.833 779.667,970.5 779,968.5C778.502,965.518 778.335,962.518 778.5,959.5L775.5,959.5L775.5,964.5L767.5,964.5L767.5,967.5L764.5,967.5L764.5,975.5L761.5,975.5C761.152,980.222 760.485,984.889 759.5,989.5L767.5,989.5L767.5,983.5L777.5,983.5C777.813,986.247 777.48,988.914 776.5,991.5C775.692,989.577 775.192,987.577 775,985.5C772.614,986.763 770.781,988.597 769.5,991C767.866,991.494 766.199,991.66 764.5,991.5L764.5,999.5L751.5,999.5L751.5,991.5L754.5,991.5L754.5,983.5C751.014,984.953 747.347,985.619 743.5,985.5C743.799,987.604 743.466,989.604 742.5,991.5C742.932,985.073 740.598,980.073 735.5,976.5C740.792,975.505 746.125,975.172 751.5,975.5L751.5,978.5L759.5,978.5L759.5,962.5L767.5,962.5L767.5,959.5L751.5,959.5L751.5,956.5L743.5,956.5L743.5,951.5L740.5,951.5L740.5,959.5L724.5,959.5C724.51,954.085 725.177,948.752 726.5,943.5C727.386,944.325 727.719,945.325 727.5,946.5L735.5,946.5L735.5,943.5L730.5,943.5L730.5,927.5L727.5,927.5C726.833,938.167 726.167,938.167 725.5,927.5L719.5,927.5C719.131,931.894 718.465,936.227 717.5,940.5C715.315,940.296 713.315,939.63 711.5,938.5C711.814,932.143 712.814,925.976 714.5,920C714.088,915.637 713.088,915.47 711.5,919.5C713.27,910.578 713.77,901.578 713,892.5C712.804,890.714 711.971,889.381 710.5,888.5C707.878,890.411 705.711,892.745 704,895.5C695.667,907.833 687.333,920.167 679,932.5C672.922,939.077 666.922,939.077 661,932.5C660.333,929.5 660.333,926.5 661,923.5C665.832,914.499 671.165,905.832 677,897.5C678.59,895.35 679.257,893.017 679,890.5C674.667,893.833 670.333,897.167 666,900.5C656.041,912.795 645.707,924.795 635,936.5C632.131,939.704 628.965,942.537 625.5,945C615.196,945.341 611.696,940.508 615,930.5C618.279,924.953 622.279,919.953 627,915.5C627.667,914.833 627.667,914.167 627,913.5C614.07,920.546 600.57,926.379 586.5,931C579.558,933.203 572.558,935.203 565.5,937C558.051,937.899 553.718,934.565 552.5,927C552.668,923.156 554.335,920.156 557.5,918C572.491,913.838 586.491,907.504 599.5,899C591.411,900.119 585.411,897.285 581.5,890.5C581.145,885.023 583.478,881.19 588.5,879C614.516,878.999 638.85,872.665 661.5,860C682.83,846.674 700.996,829.841 716,809.5C716.667,805.5 716.667,801.5 716,797.5C713.347,794.806 710.18,793.973 706.5,795C692.969,811.043 678.969,826.71 664.5,842C653.637,847.154 648.803,843.654 650,831.5C660.805,819.218 670.638,806.218 679.5,792.5C679.167,792.167 678.833,791.833 678.5,791.5C655.678,812.155 634.011,833.989 613.5,857C610.812,859.694 607.645,861.527 604,862.5C600.941,862.056 598.441,860.723 596.5,858.5C595.431,855.592 595.264,852.592 596,849.5C597.977,846.688 600.144,844.022 602.5,841.5C602.167,841.167 601.833,840.833 601.5,840.5C595.398,845.398 591.731,844.065 590.5,836.5C591.242,833.191 592.909,830.357 595.5,828C608.013,820.489 619.679,811.823 630.5,802C625.273,803.102 620.273,805.102 615.5,808C605.328,814.03 595.328,820.197 585.5,826.5C568.186,837.159 551.186,848.326 534.5,860C531.068,861.698 527.568,863.198 524,864.5C513.759,861.94 511.759,856.273 518,847.5C530.432,839.034 542.599,830.2 554.5,821C546.382,822.143 538.382,824.143 530.5,827C512.883,834.092 495.549,841.759 478.5,850C474.405,852.22 470.072,852.887 465.5,852C460.021,846.694 460.355,841.694 466.5,837C469.167,835.667 471.833,834.333 474.5,833C459.724,835.231 444.89,837.398 430,839.5C420.654,839.521 416.988,834.855 419,825.5C420.122,823.376 421.622,821.543 423.5,820C432.756,817.957 442.09,816.457 451.5,815.5C453.924,815.808 456.257,815.474 458.5,814.5C458.376,813.893 458.043,813.56 457.5,813.5C444.899,811.977 441.899,805.977 448.5,795.5C457.083,795.548 465.416,796.548 473.5,798.5C472.127,798.343 470.793,798.51 469.5,799C496.471,802.944 523.304,802.11 550,796.5C553.476,796.65 556.976,796.983 560.5,797.5C561.696,797.154 561.696,796.654 560.5,796C564.027,795.049 567.36,793.716 570.5,792C568.866,791.506 567.199,791.34 565.5,791.5C568.713,790.513 572.047,789.513 575.5,788.5C574.833,788.167 574.167,787.833 573.5,787.5C562.087,786.592 550.753,785.092 539.5,783C533.302,777.631 532.968,771.964 538.5,766C542.026,764.663 545.692,764.163 549.5,764.5C553.619,765.738 557.953,766.571 562.5,767C614.578,774.956 661.245,762.956 702.5,731C709.546,725.3 715.046,718.467 719,710.5C719.667,706.5 719.667,702.5 719,698.5C716.091,695.606 712.591,694.773 708.5,696C702.819,699.173 697.486,702.839 692.5,707C682.833,717.333 673.167,727.667 663.5,738C652.399,744.999 646.899,742.166 647,729.5C651.541,721.952 657.208,715.286 664,709.5C664.688,708.668 664.521,708.002 663.5,707.5C647.688,720.144 632.021,732.978 616.5,746C604.938,752.811 599.771,749.644 601,736.5C603.167,734.333 605.333,732.167 607.5,730C612.492,727.839 617.159,725.172 621.5,722C617.693,722.715 614.027,724.049 610.5,726C602.306,728.595 596.473,726.095 593,718.5C592.24,713.518 594.073,709.685 598.5,707C618.766,698.205 637.433,686.872 654.5,673C645.789,675.847 637.123,679.013 628.5,682.5C628.631,681.624 628.298,680.957 627.5,680.5C625.368,682.117 623.035,682.617 620.5,682C620.833,681.667 621.167,681.333 621.5,681C619.236,680.764 617.069,680.264 615,679.5C614.508,680.549 614.674,681.549 615.5,682.5C614.167,683.833 612.833,683.833 611.5,682.5C612.641,681.575 612.641,680.741 611.5,680C610.207,679.51 608.873,679.343 607.5,679.5C606.634,675.399 606.634,671.399 607.5,667.5C610.516,667.159 613.182,665.993 615.5,664C609.555,664.298 604.222,662.798 599.5,659.5C596.914,658.52 594.247,658.187 591.5,658.5L591.5,661.5L599.5,661.5C599.343,662.873 599.51,664.207 600,665.5C602.386,666.763 604.219,668.597 605.5,671C602.102,671.265 598.768,670.765 595.5,669.5C593.9,669.551 592.4,669.884 591,670.5C588.765,668.798 586.265,667.798 583.5,667.5L583.5,658.5L575.5,658.5L575.5,655.5C570.131,656.007 564.798,656.841 559.5,658C555.833,658.667 552.167,658.667 548.5,658C547.304,657.346 547.304,656.846 548.5,656.5C551.585,657.156 554.918,657.322 558.5,657C559.38,655.644 559.714,654.144 559.5,652.5L563.5,652.5C563.351,649.035 565.018,647.035 568.5,646.5C591.111,649.464 613.777,650.631 636.5,650C635.5,649.667 634.5,649.333 633.5,649C636.833,648.667 640.167,648.333 643.5,648C641.406,646.648 639.073,646.148 636.5,646.5C644.622,644.84 652.955,643.673 661.5,643C663.119,642.764 664.119,641.931 664.5,640.5C664.938,640.565 665.272,640.399 665.5,640C663.323,638.798 660.989,638.298 658.5,638.5C658.763,635.266 657.263,633.932 654,634.5C652.833,634.833 651.667,635.167 650.5,635.5C652.078,636.298 653.744,636.798 655.5,637C646.059,637.827 636.726,637.16 627.5,635C626.069,634.535 624.903,633.701 624,632.5C622.996,629.007 623.496,625.841 625.5,623C646.008,623.854 666.675,624.187 687.5,624C692.005,623.737 696.339,622.737 700.5,621C699.552,620.517 698.552,620.351 697.5,620.5C703.502,618.416 709.502,615.916 715.5,613C728.058,603.555 730.891,591.722 724,577.5C714.111,585.056 703.944,592.222 693.5,599C681.727,604.854 675.894,601.354 676,588.5C677.707,586.963 679.207,585.296 680.5,583.5C689.824,577.499 698.824,570.999 707.5,564C705.5,563.333 703.5,563.333 701.5,564C684.919,571.958 668.586,580.458 652.5,589.5C638.955,596.873 625.288,604.04 611.5,611C600.962,612.099 597.462,607.599 601,597.5C605.926,594.286 611.093,591.452 616.5,589C612.327,589.502 608.327,590.835 604.5,593C595.544,594.378 591.378,590.544 592,581.5C593.5,580 595,578.5 596.5,577C619.762,566.835 619.096,564.502 594.5,570C567.785,576.514 541.119,583.347 514.5,590.5C507.537,587.913 504.704,582.913 506,575.5C507.558,573.641 509.391,572.141 511.5,571C520.366,567.989 529.366,565.489 538.5,563.5C522.821,562.394 507.154,561.227 491.5,560C490.944,559.617 490.611,559.117 490.5,558.5C491.043,558.44 491.376,558.107 491.5,557.5C490.035,555.401 488.701,553.234 487.5,551C488.472,548.889 489.305,546.722 490,544.5C491.067,543.809 492.234,543.309 493.5,543C514.162,543.148 534.828,543.648 555.5,544.5C561.221,544.526 566.888,544.026 572.5,543C573.24,541.215 573.907,539.382 574.5,537.5C573.5,534.833 572.5,534.833 571.5,537.5C566.495,535.465 561.328,533.799 556,532.5C555.235,532.57 554.735,532.903 554.5,533.5C547.017,527.983 546.683,522.149 553.5,516C555.199,515.042 557.033,514.542 559,514.5C573.286,521.117 588.119,526.283 603.5,530C619.06,532.813 634.727,534.646 650.5,535.5Z" style="fill:rgb(25,31,28);"/>
        </g>
        <g transform="matrix(2.15697,0,0,1.39982,-884.965,-302.602)">
            <path d="M808.5,578.5C807.882,587.769 809.049,596.769 812,605.5C815.571,610.876 820.405,614.709 826.5,617C831.167,618.333 835.833,619.667 840.5,621C863.906,621.052 887.24,621.218 910.5,621.5L910.5,623.5C907.551,622.931 904.551,622.598 901.5,622.5C883.516,623.826 865.516,624.326 847.5,624C836.885,622.132 826.885,619.632 817.5,616.5C817.649,615.448 817.483,614.448 817,613.5C806.565,603.932 803.232,592.265 807,578.5C807.779,575.903 808.279,575.903 808.5,578.5Z" style="fill:rgb(22,24,23);"/>
        </g>
        <g transform="matrix(2.15697,0,0,1.39982,-884.965,-302.602)">
            <path d="M697.5,620.5C698.552,620.351 699.552,620.517 700.5,621C696.339,622.737 692.005,623.737 687.5,624C666.675,624.187 646.008,623.854 625.5,623C623.496,625.841 622.996,629.007 624,632.5C624.903,633.701 626.069,634.535 627.5,635C636.726,637.16 646.059,637.827 655.5,637C653.744,636.798 652.078,636.298 650.5,635.5C651.667,635.167 652.833,634.833 654,634.5C657.263,633.932 658.763,635.266 658.5,638.5C660.989,638.298 663.323,638.798 665.5,640C665.272,640.399 664.938,640.565 664.5,640.5C652.092,640.763 639.759,639.93 627.5,638C619.605,633.38 618.605,627.713 624.5,621C639.158,621.299 653.824,621.799 668.5,622.5C678.229,622.561 687.895,621.894 697.5,620.5Z" style="fill:rgb(15,18,15);"/>
        </g>
        <g transform="matrix(2.15697,0,0,1.39982,-884.965,-302.602)">
            <path d="M989.5,667.5C1000.84,668.686 1012.17,668.686 1023.5,667.5C1028.84,667.334 1034.18,667.501 1039.5,668C1034.34,670.085 1029.18,670.585 1024,669.5C1019.14,670.017 1014.3,670.684 1009.5,671.5C1000.57,670.106 991.571,668.939 982.5,668C984.81,667.503 987.143,667.337 989.5,667.5Z" style="fill:rgb(9,12,8);"/>
        </g>
        <g transform="matrix(2.15697,0,0,1.39982,-884.965,-302.602)">
            <path d="M636.5,646.5C639.073,646.148 641.406,646.648 643.5,648C640.167,648.333 636.833,648.667 633.5,649C634.5,649.333 635.5,649.667 636.5,650C613.777,650.631 591.111,649.464 568.5,646.5C565.018,647.035 563.351,649.035 563.5,652.5L559.5,652.5C559.714,654.144 559.38,655.644 558.5,657C554.918,657.322 551.585,657.156 548.5,656.5C547.304,656.846 547.304,657.346 548.5,658C552.167,658.667 555.833,658.667 559.5,658C564.798,656.841 570.131,656.007 575.5,655.5L575.5,658.5L583.5,658.5L583.5,667.5C586.265,667.798 588.765,668.798 591,670.5C592.4,669.884 593.9,669.551 595.5,669.5C598.768,670.765 602.102,671.265 605.5,671C604.219,668.597 602.386,666.763 600,665.5C599.51,664.207 599.343,662.873 599.5,661.5L591.5,661.5L591.5,658.5C594.247,658.187 596.914,658.52 599.5,659.5C604.222,662.798 609.555,664.298 615.5,664C613.182,665.993 610.516,667.159 607.5,667.5C606.634,671.399 606.634,675.399 607.5,679.5C608.873,679.343 610.207,679.51 611.5,680C612.641,680.741 612.641,681.575 611.5,682.5C612.833,683.833 614.167,683.833 615.5,682.5C614.674,681.549 614.508,680.549 615,679.5C617.069,680.264 619.236,680.764 621.5,681C621.167,681.333 620.833,681.667 620.5,682C623.035,682.617 625.368,682.117 627.5,680.5C628.298,680.957 628.631,681.624 628.5,682.5C604.15,691.51 580.15,701.343 556.5,712C536.329,719.221 516.329,726.721 496.5,734.5C488.497,737.674 482.997,735.341 480,727.5C478.76,721.152 481.26,716.986 487.5,715C503.062,709.219 518.395,702.886 533.5,696C528.853,695.995 524.186,696.162 519.5,696.5C514.174,694.799 508.507,693.466 502.5,692.5C501.176,694.318 499.343,695.318 497,695.5C474.914,698.295 452.747,699.961 430.5,700.5C429.99,697.983 428.656,695.983 426.5,694.5C425.692,692.577 425.192,690.577 425,688.5C424.617,689.056 424.117,689.389 423.5,689.5C424.591,686.572 426.591,684.406 429.5,683C442.5,682.167 455.5,681.333 468.5,680.5C468.291,679.914 467.957,679.414 467.5,679C461.066,677.651 454.732,675.985 448.5,674C442.745,667.863 443.412,662.53 450.5,658C469.171,660.663 487.837,663.663 506.5,667C518.833,667.667 531.167,667.667 543.5,667C548.601,666.712 553.601,665.878 558.5,664.5C546.048,662.137 533.715,659.303 521.5,656C515.978,649.99 516.311,644.323 522.5,639C525.833,638.333 529.167,638.333 532.5,639C566.782,646.455 601.448,648.955 636.5,646.5Z" style="fill:rgb(26,31,29);"/>
        </g>
        <g transform="matrix(2.15697,0,0,1.39982,-884.965,-302.602)">
            <path d="M519.5,696.5C498.783,697.637 478.116,699.303 457.5,701.5C447.843,702.315 438.176,702.482 428.5,702C424.247,698.979 422.581,694.813 423.5,689.5C424.117,689.389 424.617,689.056 425,688.5C425.192,690.577 425.692,692.577 426.5,694.5C428.656,695.983 429.99,697.983 430.5,700.5C452.747,699.961 474.914,698.295 497,695.5C499.343,695.318 501.176,694.318 502.5,692.5C508.507,693.466 514.174,694.799 519.5,696.5Z" style="fill:rgb(18,20,20);"/>
        </g>
        <g transform="matrix(2.15697,0,0,1.39982,-884.965,-302.602)">
            <path d="M565.5,791.5C567.199,791.34 568.866,791.506 570.5,792C567.36,793.716 564.027,795.049 560.5,796C561.696,796.654 561.696,797.154 560.5,797.5C556.976,796.983 553.476,796.65 550,796.5C523.304,802.11 496.471,802.944 469.5,799C470.793,798.51 472.127,798.343 473.5,798.5C504.533,800.651 535.199,798.318 565.5,791.5Z" style="fill:rgb(13,16,15);"/>
        </g>
        <g transform="matrix(2.15697,0,0,1.39982,-884.965,-302.602)">
            <path d="M986.5,795.5C1008.09,798.024 1029.75,799.024 1051.5,798.5C1053.86,798.337 1056.19,798.503 1058.5,799C1052.25,800.204 1045.91,800.871 1039.5,801C1040.94,801.219 1042.27,801.719 1043.5,802.5C1042.83,802.833 1042.17,803.167 1041.5,803.5C1035.53,802.752 1029.53,802.252 1023.5,802C1026.17,801.667 1028.83,801.333 1031.5,801C1019.46,800.441 1007.46,799.441 995.5,798C991.626,797.767 988.626,796.934 986.5,795.5Z" style="fill:rgb(19,22,20);"/>
        </g>
        <g transform="matrix(2.15697,0,0,1.39982,-884.965,-302.602)">
            <path d="M819.5,888.5C819.781,897.396 819.948,906.396 820,915.5C817.681,910.345 817.181,910.678 818.5,916.5C815.787,918.183 815.287,920.183 817,922.5C817.317,920.699 817.984,920.366 819,921.5C819.346,924.576 820.012,927.576 821,930.5C823.991,932.003 825.157,934.503 824.5,938C823.711,995.177 822.878,1052.34 822,1109.5C822.383,1108.94 822.883,1108.61 823.5,1108.5C821.791,1139.64 815.957,1169.97 806,1199.5C785.763,1247.24 751.263,1279.58 702.5,1296.5C702.038,1295.12 701.038,1294.45 699.5,1294.5C696.855,1295.11 694.188,1295.61 691.5,1296C688.478,1298.19 685.144,1299.69 681.5,1300.5C680.558,1300.39 679.725,1300.06 679,1299.5C678,1302.17 677,1302.17 676,1299.5C675.626,1300.42 675.126,1301.25 674.5,1302C668.167,1302.33 661.833,1302.67 655.5,1303C656.833,1303.67 656.833,1304.33 655.5,1305C641.675,1306.52 627.842,1306.69 614,1305.5C611.5,1305.67 609,1305.83 606.5,1306C608.058,1306.21 609.391,1306.71 610.5,1307.5C596.681,1306.47 583.014,1304.47 569.5,1301.5C528.716,1291.3 493.049,1271.8 462.5,1243C445.563,1227.22 430.896,1209.72 418.5,1190.5C419,1189.5 419.5,1188.5 420,1187.5C446.925,1165.95 473.758,1144.29 500.5,1122.5C511,1135.95 522.334,1148.78 534.5,1161C555.015,1180.42 579.349,1192.09 607.5,1196C631.465,1198.45 653.465,1193.12 673.5,1180C688.268,1166.97 697.768,1150.8 702,1131.5C704.814,1118.95 706.647,1106.29 707.5,1093.5C707.19,1090.29 707.523,1087.29 708.5,1084.5C708.334,1088.51 708.501,1092.51 709,1096.5C710.032,1086.86 710.699,1077.19 711,1067.5C711.5,1024.5 711.667,981.501 711.5,938.5C713.315,939.63 715.315,940.296 717.5,940.5C718.465,936.227 719.131,931.894 719.5,927.5L725.5,927.5C726.167,938.167 726.833,938.167 727.5,927.5L730.5,927.5L730.5,943.5L735.5,943.5L735.5,946.5L727.5,946.5C727.719,945.325 727.386,944.325 726.5,943.5C725.177,948.752 724.51,954.085 724.5,959.5L740.5,959.5L740.5,951.5L743.5,951.5L743.5,956.5L751.5,956.5L751.5,959.5L767.5,959.5L767.5,962.5L759.5,962.5L759.5,978.5L751.5,978.5L751.5,975.5C746.125,975.172 740.792,975.505 735.5,976.5C740.598,980.073 742.932,985.073 742.5,991.5C743.466,989.604 743.799,987.604 743.5,985.5C747.347,985.619 751.014,984.953 754.5,983.5L754.5,991.5L751.5,991.5L751.5,999.5L764.5,999.5L764.5,991.5C766.199,991.66 767.866,991.494 769.5,991C770.781,988.597 772.614,986.763 775,985.5C775.192,987.577 775.692,989.577 776.5,991.5C777.48,988.914 777.813,986.247 777.5,983.5L767.5,983.5L767.5,989.5L759.5,989.5C760.485,984.889 761.152,980.222 761.5,975.5L764.5,975.5L764.5,967.5L767.5,967.5L767.5,964.5L775.5,964.5L775.5,959.5L778.5,959.5C778.335,962.518 778.502,965.518 779,968.5C779.667,970.5 781,971.833 783,972.5C783.333,969.833 783.667,967.167 784,964.5C786.167,963.667 787.667,962.167 788.5,960C787.552,959.517 786.552,959.351 785.5,959.5C784.833,948.833 784.167,948.833 783.5,959.5L780.5,959.5L780.5,951.5L777.5,951.5L777.5,943.5L783.5,943.5L783.5,937.5C789.576,936.161 794.242,937.994 797.5,943C796.552,943.483 795.552,943.649 794.5,943.5L794.5,951.5L791.5,951.5L791.5,954.5L799.5,954.5C799.215,956.288 799.548,957.955 800.5,959.5C801.495,954.208 801.828,948.875 801.5,943.5L807.5,943.5L807.5,935.5L801.5,935.5C800.833,924.833 800.167,924.833 799.5,935.5L796.5,935.5L796.5,927.5L793.5,927.5L793.5,919.5C798.214,919.827 802.88,919.493 807.5,918.5C804.914,917.52 802.247,917.187 799.5,917.5L799.5,914.5L791.5,914.5L791.5,919.5C785.675,919.404 785.509,921.071 791,924.5C791.483,925.448 791.649,926.448 791.5,927.5L783.5,927.5L783.5,935.5L775.5,935.5L775.5,927.5L780.5,927.5L780.5,919.5L783.5,919.5L783.5,913.5C788.833,912.833 794.167,912.167 799.5,911.5L799.5,908.5L807.5,908.5L807.5,903.5C803.818,903.665 800.152,903.499 796.5,903C797.167,902.333 797.833,901.667 798.5,901C801.482,900.502 804.482,900.335 807.5,900.5L807.5,895.5C813.325,895.596 813.491,893.929 808,890.5C807.667,888.833 807.333,887.167 807,885.5C800.387,881.309 800.554,879.309 807.5,879.5L807.5,871.5L815.5,871.5C815.654,876.015 815.654,880.348 815.5,884.5C816.863,885.893 817.696,887.559 818,889.5C818.383,888.944 818.883,888.611 819.5,888.5Z" style="fill:rgb(25,31,29);"/>
        </g>
        <g transform="matrix(2.15697,0,0,1.39982,-884.965,-302.602)">
            <path d="M825.5,888.5C824.85,888.196 824.183,887.863 823.5,887.5C822.534,889.396 822.201,891.396 822.5,893.5C821.835,896.649 821.502,899.982 821.5,903.5C821.3,908.437 821.967,913.104 823.5,917.5C825.292,928.739 825.958,940.072 825.5,951.5L825.5,1087.5C824.245,1094.3 823.578,1101.3 823.5,1108.5C822.883,1108.61 822.383,1108.94 822,1109.5C822.878,1052.34 823.711,995.177 824.5,938C825.157,934.503 823.991,932.003 821,930.5C820.012,927.576 819.346,924.576 819,921.5C817.984,920.366 817.317,920.699 817,922.5C815.287,920.183 815.787,918.183 818.5,916.5C817.181,910.678 817.681,910.345 820,915.5C819.948,906.396 819.781,897.396 819.5,888.5L819.5,885.5C822.237,884.787 824.904,884.787 827.5,885.5C827.833,885.833 828.167,886.167 828.5,886.5C827.398,887.176 826.398,887.842 825.5,888.5Z" style="fill:rgb(28,31,29);"/>
        </g>
        <g transform="matrix(2.15697,0,0,1.39982,-884.965,-302.602)">
            <path d="M711.5,938.5C711.667,981.501 711.5,1024.5 711,1067.5C710.699,1077.19 710.032,1086.86 709,1096.5C708.501,1092.51 708.334,1088.51 708.5,1084.5L708.5,1077.5C709.333,1028.34 709.833,979.002 710,929.5C710.61,926.173 711.11,922.839 711.5,919.5C713.088,915.47 714.088,915.637 714.5,920C712.814,925.976 711.814,932.143 711.5,938.5Z" style="fill:rgb(4,8,6);"/>
        </g>
        <g transform="matrix(2.15697,0,0,1.39982,-884.965,-302.602)">
            <path d="M702.5,1296.5C685.444,1301.98 668.111,1305.64 650.5,1307.5L610.5,1307.5C609.391,1306.71 608.058,1306.21 606.5,1306C609,1305.83 611.5,1305.67 614,1305.5C627.842,1306.69 641.675,1306.52 655.5,1305C656.833,1304.33 656.833,1303.67 655.5,1303C661.833,1302.67 668.167,1302.33 674.5,1302C675.126,1301.25 675.626,1300.42 676,1299.5C677,1302.17 678,1302.17 679,1299.5C679.725,1300.06 680.558,1300.39 681.5,1300.5C685.144,1299.69 688.478,1298.19 691.5,1296C694.188,1295.61 696.855,1295.11 699.5,1294.5C701.038,1294.45 702.038,1295.12 702.5,1296.5Z" style="fill:rgb(11,14,13);"/>
        </g>
    </g>
</svg>
